<?xml version="1.0" standalone="no"?>
<!DOCTYPE svg PUBLIC "-//W3C//DTD SVG 1.1//EN" "http://www.w3.org/Graphics/SVG/1.1/DTD/svg11.dtd" >
<!--
2013-9-30: Created.
-->
<svg>
<metadata>
Created by iconfont
</metadata>
<defs>

<font id="iconfont" horiz-adv-x="1024" >
  <font-face
    font-family="iconfont"
    font-weight="500"
    font-stretch="normal"
    units-per-em="1024"
    ascent="896"
    descent="-128"
  />
    <missing-glyph />
    
    <glyph glyph-name="jianqu" unicode="&#58929;" d="M895.888014-127.936008h-767.904012a127.984002 127.984002 0 0 0-127.984002 127.984002v767.904012a127.984002 127.984002 0 0 0 127.984002 127.984002h767.904012a127.984002 127.984002 0 0 0 127.984002-127.984002v-767.904012a127.984002 127.984002 0 0 0-127.984002-127.984002z m-501.44132 204.774403a111.666042 111.666042 0 0 1 113.457818-109.426322 111.794026 111.794026 0 0 1 113.713786 109.426322z m-219.876515 147.181603a44.794401 44.794401 0 0 1-45.306337-43.514561v-5.055368a44.794401 44.794401 0 0 1 45.306337-43.514561h668.012498a45.754281 45.754281 0 0 1 46.266217 43.514561v5.055368a44.794401 44.794401 0 0 1-45.306337 43.514561h-95.604049a38.395201 38.395201 0 0 1 7.03912 22.141232v204.774403a225.571804 225.571804 0 0 1-199.015123 217.572803 52.089489 52.089489 0 0 1 2.751656 16.637921 50.745657 50.745657 0 0 1-50.809649 50.55368 50.617673 50.617673 0 0 1-50.553681-50.55368 50.425697 50.425697 0 0 1 2.751656-16.637921 225.891764 225.891764 0 0 1-197.991251-217.572803v-204.774403a38.395201 38.395201 0 0 1 7.03912-22.141232z"  horiz-adv-x="1024" />

    
    <glyph glyph-name="dingweiweizhifuzhi" unicode="&#58883;" d="M0 896l1024 0 0-1024L0-128zM508.854857 822.857143A362.934857 362.934857 0 0 1 146.285714 459.337143c0-100.498286 40.594286-191.341714 106.276572-257.097143L508.854857-54.85714299999995l256.219429 257.097143a364.397714 364.397714 0 0 1 106.276571 257.024C871.058286 660.260571 708.827429 822.857143 508.854857 822.857143z m0-525.165714a161.792 161.792 0 0 0-114.10285701 275.602285 161.060571 161.060571 0 0 0 228.20571401 0 161.792 161.792 0 0 0 0-228.059428 163.108571 163.108571 0 0 0-114.102857-47.542857z"  horiz-adv-x="1024" />

    
    <glyph glyph-name="yiwen" unicode="&#58882;" d="M466.199273 104.727273V198.562909h91.601454V104.727273h-91.601454zM512 848.709818c132.375273-2.885818 242.222545-47.941818 329.541818-135.261091 87.226182-87.226182 132.189091-197.073455 135.168-329.448727-2.885818-132.375273-47.941818-242.222545-135.261091-329.541818-87.226182-87.226182-197.073455-132.189091-329.448727-135.168-132.375273 2.885818-242.222545 47.941818-329.541818 135.261091C95.325091 141.777455 50.269091 251.624727 47.383273 384 50.176 516.375273 95.232 626.222545 182.458182 713.541818 269.777455 800.674909 379.624727 845.730909 512 848.616727z m0-837.818182c104.727273 2.885818 192.325818 39.656727 262.888727 110.219637S882.222545 279.272727 885.108364 384c-2.885818 104.727273-39.656727 192.325818-110.219637 262.888727S616.727273 754.222545 512 757.108364c-104.727273-2.885818-192.325818-39.656727-262.888727-110.219637S141.777455 488.727273 138.891636 384c2.885818-104.727273 39.656727-192.325818 110.219637-262.888727S407.272727 13.777455 512 10.891636zM512 663.272727c52.410182-1.489455 95.976727-19.549091 130.885818-54.551272 34.909091-34.909091 53.061818-78.568727 54.551273-130.885819-5.771636-53.806545-29.044364-94.208-69.818182-121.111272-40.680727-26.903273-63.953455-64.325818-69.818182-112.360728h-91.601454c5.771636 69.818182 29.044364 115.991273 69.818182 138.519273 40.680727 22.528 63.953455 54.178909 69.818181 94.952727a96.814545 96.814545 0 0 1-28.392727 65.442909A88.808727 88.808727 0 0 1 512 569.437091a88.808727 88.808727 0 0 1-65.442909-26.158546 96.814545 96.814545 0 0 1-28.392727-65.442909h-91.601455c1.396364 52.317091 19.549091 95.976727 54.551273 130.885819 34.909091 34.909091 78.475636 53.061818 130.885818 54.551272z"  horiz-adv-x="1024" />

    
    <glyph glyph-name="shuaxin" unicode="&#58930;" d="M55.296 625.664S147.456 771.072 294.912 846.848 620.544 902.144 737.28 826.368s157.696-137.216 157.696-137.216l102.4 59.392s20.48 10.24 20.48-14.336v-366.592s0-32.768-24.576-20.48l-313.344 178.176c-38.912 16.384-4.096 30.72-4.096 30.72l98.304 57.344s-55.296 71.68-137.216 108.544-169.984 51.2-270.336 12.288c-65.536-24.576-143.36-88.064-198.656-182.272z m911.36-483.328s-92.16-143.36-237.568-221.184-325.632-55.296-444.416 20.48-157.696 137.216-157.696 137.216l-100.352-57.344s-20.48-10.24-20.48 14.336V400.384s0 32.768 24.576 20.48l313.344-178.176c38.912-16.384 4.096-30.72 4.096-30.72l-98.304-57.344s55.296-71.68 137.216-108.544 169.984-51.2 270.336-12.288c65.536 24.576 143.36 88.064 198.656 182.272z m0 0"  horiz-adv-x="1024" />

    
    <glyph glyph-name="icon" unicode="&#58884;" d="M509.148 843.681c-261.855 0-474.112-212.287-474.112-474.112 0-261.827 212.257-474.112 474.112-474.112 261.854 0 474.112 212.285 474.112 474.112 0 261.825-212.258 474.112-474.112 474.112zM718.25 516.396l-148.101-148.161 133.285-145.323c17.363-17.364 17.363-45.548 0-62.913-17.362-17.302-45.548-17.302-62.852 0l-133.315 145.383-144.456-144.457c-17.362-17.302-45.402-17.302-62.736 0-17.305 17.306-17.305 45.433 0 62.739l147.205 147.174-133.286 145.381c-17.363 17.364-17.363 45.491 0 62.823 17.363 17.393 45.519 17.393 62.881 0l133.288-145.353 145.409 145.382c17.335 17.306 45.374 17.306 62.738 0 17.245-17.305 17.245-45.374-0.060-62.679z"  horiz-adv-x="1024" />

    
    <glyph glyph-name="shanchu" unicode="&#58892;" d="M511.998 831.999c-247.421 0-447.998-200.577-447.998-447.997 0-247.429 200.577-448.004 447.998-448.004 247.427 0 448.003 200.577 448.003 448.004 0.001 247.42-200.575 447.997-448.003 447.997v0zM769.918 193.918l-67.836-67.836-190.084 190.013-190.078-190.082-67.842 67.906 190.020 190.084-190.020 190.077 67.842 67.841 190.078-190.019 190.082 190.082 67.836-67.904-190.013-190.077 190.015-190.084zM769.918 193.918z"  horiz-adv-x="1024" />

    
    <glyph glyph-name="shouji" unicode="&#58903;" d="M409.6 793.6h204.8v-819.2H409.6z"  horiz-adv-x="1024" />

    
    <glyph glyph-name="mima1" unicode="&#58990;" d="M836.352 496.704h-78.528v144C757.76 791.296 633.472 896 482.88 896 332.352 896 208 791.296 208 640.704v-137.408H129.472C90.176 503.296 64 470.528 64 437.76v-497.472c0-39.232 32.704-65.408 65.472-65.408h706.88c39.296 0 65.472 32.64 65.472 65.408v490.88c0 39.296-26.24 65.472-65.472 65.472M522.24 169.472v-111.296c0-6.528-6.528-6.528-6.528-6.528h-58.88c-6.592 0-6.592 6.528-6.592 6.528v111.296c-32.704 13.056-52.352 39.232-52.352 72 0 45.824 39.296 85.12 85.12 85.12 45.76 0 85.056-39.296 85.056-85.12 0-32.768-19.648-58.88-45.824-72M653.056 496.64H312.704V647.296c0 78.528 78.592 144 170.24 144 91.584 0 170.112-65.472 170.112-144V496.64"  horiz-adv-x="1024" />

    
    <glyph glyph-name="zhanghao" unicode="&#58928;" d="M501.75 356.759c150.844 0 273.628 120.295 273.628 268.158 0 147.864-122.783 268.157-273.628 268.157-150.875 0-273.626-120.293-273.626-268.157 0.001-147.864 122.75-268.158 273.626-268.158z m-104.905-49.113c-190.56 0-332.823-128.481-332.823-315.078v-20.07c0-97.572 152.48-97.572 345.462-97.572h204.998c185.419 0 345.495 0 345.495 97.573v20.069c0 186.565-142.265 315.078-332.791 315.078H396.845z"  horiz-adv-x="1024" />

    
    <glyph glyph-name="dayin" unicode="&#59189;" d="M791.296 779.648a69.76 69.76 0 0 1-69.824 69.76H302.528a69.76 69.76 0 0 1-69.76-69.76v-116.352c0-25.728 20.8-46.592 46.528-46.592h465.408a46.528 46.528 0 0 1 46.592 46.592V779.648z m22.784-665.792a46.528 46.528 0 0 1-45.632 37.44H255.616a46.528 46.528 0 0 1-45.696-37.44l-22.336-111.808a69.824 69.824 0 0 1 68.48-83.52H768a69.76 69.76 0 0 1 68.48 83.52l-22.4 111.808zM929.408 570.24H94.592c-51.264 0-92.992-40.96-93.568-92.16-1.28-110.72-2.304-300.8 3.584-398.464 2.24-36.16 31.36-64.768 67.584-66.176l47.488-1.792 50.56 181.632a69.76 69.76 0 0 0 67.264 51.072h548.992c31.36 0 58.88-20.864 67.2-51.072l50.56-181.632c19.776 0.64 27.968 1.024 47.552 1.792a70.464 70.464 0 0 1 67.584 66.176c5.888 97.6 4.928 287.744 3.584 398.4-0.64 51.2-42.304 92.16-93.568 92.16zM137.728 384a46.72 46.72 0 0 0-46.848 46.528 46.72 46.72 0 0 0 46.784 46.592 46.72 46.72 0 0 0 46.784-46.592A46.72 46.72 0 0 0 137.728 384z"  horiz-adv-x="1024" />

    
    <glyph glyph-name="paixu-copy" unicode="&#59484;" d="M429.7728 896L429.7728 199.67999999999995l-211.0464 218.4192L102.0928 297.2672 511.6928-127.28319999999997 921.9072 297.1648l-116.6336 120.832-211.0464-219.8528L594.2272 896"  horiz-adv-x="1024" />

    
    <glyph glyph-name="paixu" unicode="&#58927;" d="M594.2272-128V568.32l211.0464-218.4192L921.9072 470.7328 512.3072 895.2832 102.0928 470.8352l116.6336-120.832 211.0464 219.8528V-128"  horiz-adv-x="1024" />

    
    <glyph glyph-name="baifenhao" unicode="&#58886;" d="M754.162162 896h244.468469L260.612613-128H16.144144zM228.324324 462.414414C111.140901 462.414414 16.144144 553.282883 16.144144 665.369369S111.140901 868.324324 228.324324 868.324324s212.18018-90.868468 212.180181-202.954955-94.996757-202.954955-212.180181-202.954955z m0 129.153154c33.118559 0 59.963964 33.040144 59.963964 73.801801s-26.845405 73.801802-59.963964 73.801802-59.963964-33.040144-59.963964-73.801802 26.845405-73.801802 59.963964-73.801801zM795.675676-128c-117.183423 0-212.18018 90.868468-212.180181 202.954955s94.996757 202.954955 212.180181 202.954955 212.18018-90.868468 212.18018-202.954955-94.996757-202.954955-212.18018-202.954955z m0 129.153153c33.118559 0 59.963964 33.040144 59.963964 73.801802s-26.845405 73.801802-59.963964 73.801802-59.963964-33.040144-59.963964-73.801802 26.845405-73.801802 59.963964-73.801802z"  horiz-adv-x="1024" />

    
    <glyph glyph-name="xiuli" unicode="&#59045;" d="M932.114778 669.353027c-15.019065-16.821107-39.956014-38.316677-75.691913-70.972425-37.864376-37.782511-91.427292-37.782511-129.298831 0-37.864376 37.800931-37.864376 91.246167 0 129.028679 34.874275 34.802644 72.384587 76.063373 71.76958 76.235288-101.354386 46.668902-225.264487 28.633131-308.810275-54.722322-76.108399-75.954903-97.840352-185.353498-65.800635-280.7021L102.191962 146.801716c-47.602158-47.502897-47.602158-124.526131 0-172.028005 47.610344-47.512107 124.788098-47.512107 172.399465 0l322.089719 321.410244c95.557356-31.985482 205.182103-10.290367 281.290501 65.655326C961.427384 445.121056 978.737632 568.28926 932.114778 669.353027z"  horiz-adv-x="1024" />

    
    <glyph glyph-name="biaozhunku" unicode="&#58994;" d="M96 809.6v-854.4C96-89.6 134.4-128 179.2-128h691.2c38.4 0 57.6 22.4 57.6 67.2 0 32-25.6 60.8-57.6 60.8H259.2c-25.6 0-41.6 19.2-41.6 41.6 0 22.4 16 44.8 41.6 44.8h585.6c44.8 0 83.2 38.4 83.2 86.4V809.6C928 857.6 889.6 896 844.8 896h-291.2v-406.4c0-6.4-3.2-9.6-6.4-16-6.4-6.4-22.4-6.4-32 0-6.4 6.4-89.6 80-89.6 80s-83.2-70.4-89.6-80c-6.4-6.4-22.4-6.4-32 0 3.2 6.4 0 12.8 0 16V896H179.2C134.4 896 96 857.6 96 809.6m0 0z"  horiz-adv-x="1024" />

    
    <glyph glyph-name="huiyuanqia" unicode="&#58926;" d="M29.886 581.448h965.01c14.524 0 14.524 11.225 14.524 11.225V695.602c0 27.7-22.667 50.368-50.368 50.368H64.897c-27.704 0-50.368-22.667-50.368-50.368v-95.986c0-18.168 15.357-18.168 15.357-18.168z m958.556-107.17H30.387c-15.858 0-15.858-12.592-15.858-12.592V72.4c0-27.704 22.664-50.368 50.368-50.368h894.165c27.696 0 50.365 22.664 50.365 50.368V453.745c0.001 0 0.001 20.533-20.985 20.533zM426.068 126.11c0-9.811-8.034-17.861-17.854-17.861H114.58c-9.825 0-17.861 8.049-17.861 17.861v66.168c0 9.825 8.037 17.864 17.86 17.864h293.63c9.825 0 17.859-8.039 17.859-17.864v-66.168z"  horiz-adv-x="1025" />

    
    <glyph glyph-name="xieyecaijifenxi" unicode="&#58924;" d="M839.895579 152.198737c-42.091789 0-76.314947 35.031579-76.314947 78.255158 0 5.173895 0.646737 9.970526 1.455157 14.605473l0.700632 3.072a88.387368 88.387368 0 0 0 3.503158 11.695158l0.592842 1.670737c18.162526 43.762526 70.063158 67.045053 70.063158 125.628632 0-58.529684 51.900632-81.866105 70.063158-125.628632l0.646737-1.670737c1.401263-3.718737 2.586947-7.653053 3.503158-11.695158l0.646736-3.072c0.808421-4.634947 1.455158-9.431579 1.455158-14.605473 0-43.169684-34.223158-78.255158-76.314947-78.255158z m1.347368 340.183579l0.10779-0.161684 22.743579-23.390316-1.509053-1.562948c-16.006737-11.425684-69.685895-5.766737-86.393263-22.905263l-30.935579-31.690105-0.323368 0.377263c-1.778526-2.048-3.395368-4.149895-5.281685-6.090105L368.101053 25.707789A149.935158 149.935158 0 0 0 260.257684-20.210526a150.096842 150.096842 0 0 0-107.897263 45.918315 158.558316 158.558316 0 0 0-42.954105 132.850527c-2.586947 43.169684 10.940632 87.04 43.008 120.077473l371.550316 381.251369c1.886316 1.940211 3.988211 3.557053 5.928421 5.389474l-0.323369 0.323368 30.881684 31.690105c17.408 17.839158 9.970526 77.392842 23.228632 90.920421l280.522105-287.851789-1.562947-1.616842c-4.527158-3.233684-12.503579-4.958316-21.396211-6.359579z m-227.22021 171.169684l-177.583158-182.164211-240.801684-247.107368a95.770947 95.770947 0 0 1-17.785263-106.496c-15.575579 41.013895 9.269895 82.836211 33.091368 107.250526l240.047158 246.352842h244.358737l48.128 49.367579-129.455158 132.796632z"  horiz-adv-x="1024" />

    
    <glyph glyph-name="zizhi" unicode="&#59136;" d="M793.6 85.4c-86.9-81.8-257-141.9-278.8-149.4-2.1 0.2-4.1 0.6-6.2 0.5-25.9 8.9-192 68.4-277.6 148.9-61.8 58.1-86.8 111.6-96.5 150.2h-0.2V709.4c0.1 0 0.2 0.1 0.3 0.1 0.9 7.9 7.1 14 15.1 14.4 0.2 0.2 0.2 0.5 0.4 0.7 7.6-0.2 15.1-0.6 22.8-0.6 153.6 0 283.2 42.4 325.1 100.6 0.3-0.1 0.6-0.4 1-0.5 2.8 4.6 7.6 7.7 13.4 7.7 5.7 0 10.4-3.1 13.3-7.5 0.3 0.1 0.6 0.3 1 0.5 41.7-58.3 171.5-100.9 325.3-100.9 6.8 0 13.5 0.3 20.2 0.5 0.1-0.2 0.1-0.5 0.2-0.7 0.4 0 0.8 0.3 1.2 0.3 8.9 0 16.1-7.2 16.1-16.1v-0.3c0-0.6-0.3-1.1-0.4-1.7 0.1 0 0.2-0.1 0.4-0.2v-471.2c-9.8-38.4-34.9-91.5-96.1-149.1zM692.5 553.8L512.4 343.7l-133.8 79.6-50.6-66.6 184.3-140L754.7 498l-62.2 55.8z m0 0"  horiz-adv-x="1024" />

    
    <glyph glyph-name="fangqi" unicode="&#58918;" d="M823.943638-20.086086c0 0-105.356536-62.165852-248.355391-66.326615 0 0 131.8704 38.554084 134.732587 272.075629 0 0-9.981329 225.454822-162.789597 316.696896 0 0 154.814971 60.039421 233.752812 18.400069 0 0 138.718365-163.034167 147.84421-348.70796C929.151795 172.079562 937.2748 34.209518 823.943638-20.086086L823.943638-20.086086zM438.604386 485.315636c0 0-196.35404-187.828876-102.494349-319.503824 0 0 129.572054-99.468432 312.812425-28.528754 0 0 13.430894-143.130861-135.736451-224.323045 0 0-233.825466-15.741519-329.420685 76.127841 0 0-127.101793 104.781438-83.758636 269.77319 0 0 111.911836 367.383298 302.370609 464.916659 0 0 146.69299 75.852572 234.781234-29.351492l127.540791-126.010949C764.671697 568.387633 583.854515 630.129836 438.604386 485.315636L438.604386 485.315636zM438.604386 485.315636"  horiz-adv-x="1024" />

    
    <glyph glyph-name="weiji" unicode="&#58970;" d="M896.023273 34.455273V511.045818C896.023273 723.665455 724.049455 896 512 896 299.904 896 128 723.665455 128 511.045818v-476.590545H0V-128h1024V34.455273H896.023273z m-484.142546 97.559272l83.409455 250.205091-183.226182 0.709819 300.043636 299.589818-83.386181-250.216728 183.214545-0.709818-300.055273-299.578182z"  horiz-adv-x="1024" />

    
    <glyph glyph-name="shiyan-s" unicode="&#59228;" d="M213.333333 896h597.333334a42.666667 42.666667 0 0 0 42.666666-42.666667v-42.666666a42.666667 42.666667 0 0 0-42.666666-42.666667H213.333333a42.666667 42.666667 0 0 0-42.666666 42.666667V853.333333a42.666667 42.666667 0 0 0 42.666666 42.666667zM640 768H384v-299.349333L155.861333 0h712.277334L640 468.608V768z m343.210667-711.978667A128 128 0 0 0 868.138667-128H155.861333a128 128 0 0 0-115.114666 184.021333L256 498.176V896h512v-397.866667l215.210667-442.112zM860.288 308.821333l122.581333-251.904a128 128 0 0 0-115.072-184.021333H155.52a128 128 0 0 0-115.114667 184.021333l127.402667 261.632c78.805333 34.090667 154.794667 47.616 227.925333 40.618667 128.170667-12.245333 114.645333-105.386667 237.44-107.946667 63.701333-1.322667 139.392 17.877333 227.114667 57.6zM554.666667 469.333333m-42.666667 0a42.666667 42.666667 0 1 1 85.333333 0 42.666667 42.666667 0 1 1-85.333333 0Z"  horiz-adv-x="1024" />

    
    <glyph glyph-name="tongji-" unicode="&#58898;" d="M260.129032-33.032257999999956V528.516129c0 20.645161-16.516129 41.290323-37.16129 41.290323H111.483871c-20.645161 0-37.16129-20.645161-37.16129-41.290323V-33.032257999999956h185.806451z m239.483871 0V768c0 20.645161-16.516129 41.290323-37.16129 41.290323H350.967742c-20.645161 0-37.16129-20.645161-37.16129-41.290323V-33.032257999999956h185.806451z m239.483871 0v355.096774c0 20.645161-16.516129 41.290323-37.16129 41.290323h-111.483871c-20.645161 0-37.16129-20.645161-37.16129-41.290323V-33.032257999999956h185.806451z m239.483871 0V528.516129c0 20.645161-16.516129 41.290323-37.16129 41.290323h-111.483871c-20.645161 0-37.16129-20.645161-37.16129-41.290323V-33.032257999999956h185.806451z"  horiz-adv-x="1053" />

    
    <glyph glyph-name="yun" unicode="&#58881;" d="M769.5 477.6c-17.3 130.9-126 231.7-257.5 231.7S271.8 608.4 254.5 477.6c-106-7.4-189.8-98.2-189.8-209.2 0-115.8 91.2-209.7 203.8-209.7 3.9 0 7.8 0.2 11.7 0.4v-0.4H758v0.1c111.4 1.3 201.4 94.6 201.4 209.7-0.1 110.9-83.9 201.7-189.9 209.1z"  horiz-adv-x="1024" />

    
    <glyph glyph-name="VIP" unicode="&#58890;" d="M982.016 564.224c-22.016 25.088-157.184 184.832-208.896 240.128-15.872 17.408-27.648 29.184-52.224 30.208-24.576 1.024-417.28 0-417.28 0-13.312 0-30.72-3.072-52.736-29.184-51.712-60.416-168.448-194.56-207.872-241.152-26.624-30.72-30.208-74.752 0-120.32 64-74.752 240.128-276.992 417.28-480.768 25.088-29.184 40.96-30.208 52.224-30.208 10.752 0 26.624 0.512 52.224 30.208 175.104 201.728 343.552 394.752 417.28 480.768 25.088 30.208 29.696 84.48 0 120.32z m-187.904-34.816c0-6.144-4.608-10.752-9.728-10.752h-9.216c-14.336 0-13.312-2.56-19.968-11.264-49.664-67.072-247.296-332.8-247.296-332.8 0 0.512 0 1.024-0.512 1.024v-1.024s-198.144 265.216-247.296 332.8c-7.168 8.192-5.632 11.264-19.968 11.264H230.4c-5.632 0-9.728 5.12-9.728 10.752v54.784c0 6.144 4.608 10.752 9.728 10.752h98.816c5.632 0 13.312-0.512 19.968-10.752l158.208-222.72v-1.024c0 0.512 0 0.512 0.512 1.024L665.6 584.704c6.656 10.24 14.336 10.752 19.968 10.752h98.816c5.632 0 9.728-5.12 9.728-11.264v-54.784z"  horiz-adv-x="1024" />

    
    <glyph glyph-name="rili" unicode="&#58902;" d="M901.706109 723.548707h-56.356632v84.534947a28.178316 28.178316 0 0 1-28.178316 28.178316H732.636214a28.178316 28.178316 0 0 1-28.178316-28.178316v-84.534947h-394.496423v84.534947a28.178316 28.178316 0 0 1-28.178316 28.178316H200.629609a28.178316 28.178316 0 0 1-28.178316-28.178316v-84.534947h-56.356631a56.356632 56.356632 0 0 1-56.356632-56.356632V-5.706109a56.356632 56.356632 0 0 1 56.356632-56.356632H901.706109a56.356632 56.356632 0 0 1 56.356632 56.356632V664.93781a56.356632 56.356632 0 0 1-56.356632 58.610897z m-56.356632-619.92295a56.356632 56.356632 0 0 0-56.356632-56.356632H230.498624a56.356632 56.356632 0 0 0-56.356632 56.356632v338.139791a56.356632 56.356632 0 0 0 56.356632 56.356631H788.992845a56.356632 56.356632 0 0 0 56.356632-56.356631zM566.947716 329.052284l225.426527 0 0-225.426527-225.426527 0 0 225.426527Z"  horiz-adv-x="1024" />

    
    <glyph glyph-name="jiqiren" unicode="&#59483;" d="M702.4 89.6H321.6c-25.6 0-48-22.4-48-49.6 0-27.2 20.8-49.6 48-49.6H704c25.6 0 48 22.4 48 49.6-1.6 27.2-22.4 49.6-49.6 49.6z m48 688H273.6c-52.8 0-96-44.8-96-97.6v-443.2c0-54.4 43.2-97.6 96-97.6h476.8c52.8 0 96 44.8 96 97.6V678.4c0 54.4-43.2 99.2-96 99.2z m-395.2-158.4c32 0 59.2-27.2 59.2-59.2s-27.2-59.2-59.2-59.2-59.2 27.2-59.2 59.2c0 33.6 25.6 59.2 59.2 59.2z m334.4-313.6H334.4c-22.4 0-40 17.6-40 40s17.6 40 40 40H688c22.4 0 40-17.6 40-40s-17.6-40-38.4-40z m-20.8 196.8c-32 0-59.2 27.2-59.2 59.2s27.2 59.2 59.2 59.2 59.2-27.2 59.2-59.2c0-33.6-25.6-59.2-59.2-59.2z m0 0"  horiz-adv-x="1024" />

    
    <glyph glyph-name="jiqirenshezhioff" unicode="&#58885;" d="M539.875556 880.298667l398.222222-223.971556a56.888889 56.888889 0 0 0 29.013333-49.607111v-445.44a56.888889 56.888889 0 0 0-29.013333-49.607111l-398.222222-223.971556a56.888889 56.888889 0 0 0-55.751112 0l-398.222222 223.971556a56.888889 56.888889 0 0 0-29.013333 49.607111v445.44a56.888889 56.888889 0 0 0 29.013333 49.607111l398.222222 223.971556a56.888889 56.888889 0 0 0 55.751112 0zM512 242.403556a151.153778 151.153778 0 0 1 151.722667 150.584888A151.153778 151.153778 0 0 1 512 543.573333a151.153778 151.153778 0 0 1-151.722667-150.584889A151.153778 151.153778 0 0 1 512 242.403556z"  horiz-adv-x="1024" />

    
    <glyph glyph-name="yonghu" unicode="&#58921;" d="M915.524267 105.0624c3.268267-10.094933 6.084267-23.150933 7.850666-39.04 1.578667-16.085333 2.491733-31.9744 2.491734-47.872 0-15.880533-1.1776-31.061333-3.601067-45.277867-2.3552-14.1568-6.0928-25.156267-10.871467-32.554666-3.464533-4.7616-13.354667-9.838933-29.5936-15.249067-16.4352-5.461333-36.206933-10.743467-59.579733-15.8208-23.637333-5.0176-49.962667-9.710933-79.36-14.216533-29.397333-4.5056-58.5984-8.234667-87.6032-11.707734-29.013333-3.601067-57.1648-6.237867-84.5312-8.174933-27.2384-2.184533-51.003733-3.1488-70.971733-3.1488-30.318933 0-66.3296 2.312533-107.776 6.690133-41.4464 4.437333-81.911467 9.582933-121.326934 15.829334-39.424 6.0416-73.984 12.288-103.714133 18.773333-29.7216 6.5024-47.6672 12.032-53.947733 16.725333-7.594667 5.546667-13.294933 22.075733-17.092267 49.92-3.797333 27.861333-2.295467 63.368533 4.7104 106.862934 4.130133 25.088 14.5408 44.125867 31.104 56.994133 16.5632 12.996267 36.1472 23.0912 58.666667 30.549333 22.459733 7.594667 45.636267 14.353067 69.538133 20.394667 23.893333 6.178133 44.782933 14.993067 62.788267 26.376533 14.472533 9.0112 25.668267 17.4336 33.655466 25.472 7.918933 8.106667 13.422933 16.2816 16.494934 24.516267 3.1488 8.106667 4.650667 16.597333 4.650666 25.403733 0 8.874667-0.324267 18.338133-0.981333 28.5696-1.373867 16.273067-6.741333 28.8768-16.042667 37.632a531.9936 531.9936 0 0 1-31.684266 27.4688c-5.435733 4.7616-10.350933 11.383467-14.472534 19.882667a359.765333 359.765333 0 0 0-11.392 25.984 1135.598933 1135.598933 0 0 0-10.350933 31.522133c-4.8384 1.28-9.685333 3.729067-14.532267 7.133867-4.1216 3.345067-8.576 8.106667-13.482666 14.2848-4.846933 6.109867-9.045333 14.856533-12.3136 26.368-3.5328 11.648-4.778667 21.947733-3.729067 31.018667 1.041067 9.258667 2.944 17.109333 5.691733 23.927466a77.7984 77.7984 0 0 0 12.4416 21.418667 478.890667 478.890667 0 0 0 4.189867 77.329067c2.747733 21.742933 7.790933 44.7744 14.993067 69.213866 7.2704 24.448 17.809067 46.506667 31.556266 66.133334 13.226667 18.397867 27.904 33.450667 44.202667 45.226666 16.238933 11.963733 32.597333 21.290667 49.169067 28.040534A228.096 228.096 0 0 0 461.056 891.946667 309.248 309.248 0 0 0 510.037333 896c20.096 0 39.210667-2.3808 57.5488-7.1424 18.3296-4.7616 35.4816-10.8032 51.396267-18.3296 15.914667-7.3984 30.122667-15.701333 42.555733-24.832 12.373333-9.198933 22.459733-18.466133 29.994667-27.989333a228.027733 228.027733 0 0 0 38.954667-71.790934c8.644267-26.112 14.728533-50.688 18.0736-73.7792 4.181333-27.153067 5.956267-54.357333 5.102933-81.442133a26.402133 26.402133 0 0 0 11.460267-12.16c2.747733-4.829867 5.102933-10.871467 6.8096-18.338133 1.570133-7.5264 2.030933-16.657067 0.5888-27.528534-2.218667-14.2848-5.376-25.540267-9.890134-34.030933-4.445867-8.490667-9.429333-15.121067-14.993066-19.882667-6.2208-5.4016-12.6976-9.258667-19.643734-11.1872a456.7296 456.7296 0 0 0-9.361066-31.5904c-3.669333-8.814933-7.5264-17.5616-12.049067-26.052266-4.386133-8.4224-9.557333-15.0528-15.0528-19.8144a168.149333 168.149333 0 0 0-17.681067-13.636267c-5.504-3.729067-10.410667-7.722667-14.472533-11.707733-4.258133-4.1216-7.594667-9.002667-10.274133-14.7968-2.884267-5.7856-4.983467-12.672-6.417067-20.778667-2.030933-10.231467-2.56-20.650667-2.030933-31.069867 0.853333-10.615467 3.464533-21.102933 8.311466-31.5904 4.778667-10.5472 12.706133-20.5824 23.8336-30.037333 11.008-9.454933 25.856-17.9456 44.526934-25.540267a504.192 504.192 0 0 1 56.439466-17.6896 574.071467 574.071467 0 0 0 59.1872-18.338133c18.858667-7.074133 35.8144-16.145067 50.747734-26.88 15.0528-11.067733 25.6-25.344 31.8208-42.9824z"  horiz-adv-x="1024" />

    
    <glyph glyph-name="bohui" unicode="&#58915;" d="M512 896a512 512 0 1 1 512-512 512 512 0 0 1-512 512z m0-834.267429a73.142857 73.142857 0 1 0 73.142857 73.142858 73.142857 73.142857 0 0 0-73.142857-73.142858z m73.142857 269.824a73.142857 73.142857 0 0 0-146.285714 0V674.15771402a73.142857 73.142857 0 0 0 146.285714-3e-8v-342.60114299z"  horiz-adv-x="1024" />

    
    <glyph glyph-name="weijizhi" unicode="&#58916;" d="M910.222222-127.943111H113.777778a113.777778 113.777778 0 0 0-113.777778 113.777778v796.444444a113.777778 113.777778 0 0 0 113.777778 113.777778h796.444444a113.777778 113.777778 0 0 0 113.777778-113.777778v-796.444444a113.777778 113.777778 0 0 0-113.777778-113.777778zM266.638222 537.656889v-141.653333a474.168889 474.168889 0 0 0-84.024889-287.402667 440.604444 440.604444 0 0 0 34.645334-45.966222 547.214222 547.214222 0 0 1 99.328 342.641777v96.711112h516.664889v46.705777h-213.333334l42.951111 42.951111 40.448 40.391112v44.600888h-307.2a557.909333 557.909333 0 0 1 29.980445 50.062223H367.502222a600.064 600.064 0 0 0-188.700444-191.317334 362.439111 362.439111 0 0 0 32.028444-40.675555c19.797333 13.994667 38.627556 28.444444 55.864889 42.837333z m134.599111-102.4v-252.586667a77.198222 77.198222 0 0 1 86.755556-87.381333h222.606222a91.022222 91.022222 0 0 1 100.067556 66.673778c5.688889 20.024889 11.889778 48.981333 18.545777 86.016a501.873778 501.873778 0 0 0-52.622222 20.707555 693.361778 693.361778 0 0 0-14.051555-83.399111 54.954667 54.954667 0 0 0-60.586667-43.292444H498.688c-31.857778 0-47.331556 14.791111-47.331556 45.511111V389.745778h221.866667c-1.308444-31.744-3.128889-56.888889-5.404444-77.312-2.958222-27.932444-20.878222-42.097778-53.304889-42.097778h-1.251556a823.011556 823.011556 0 0 0-70.656 5.404444c4.039111-14.961778 7.850667-33.166222 11.377778-53.987555 29.980444-0.967111 49.322667-1.365333 62.577778-1.365333h2.787555a85.333333 85.333333 0 0 1 97.905778 87.438222c3.072 37.888 5.688889 79.644444 8.078222 127.943111z m155.648 113.379555H279.324444a724.309333 724.309333 0 0 1 81.635556 81.976889h274.318222A4414.008889 4414.008889 0 0 0 556.942222 548.636444z"  horiz-adv-x="1024" />

    
    <glyph glyph-name="query" unicode="&#58917;" d="M438.5 643c-92.7 0-168.2-76.1-168.2-169.5 0-93.5 75.5-169.5 168.2-169.5 92.7 0 168.2 76.1 168.2 169.5 0 93.5-75.5 169.5-168.2 169.5zM511.1 830.5c-247.4 0-448-200.4-448-447.6s200.6-447.6 448-447.6 448 200.4 448 447.6-200.6 447.6-448 447.6z m287.4-719.9a51.426 51.426 0 0 0-36.6-15.3c-13.2 0-26.4 5.1-36.6 15.3L576.8 260.4c-1.7 1.7-3 3.6-4.4 5.5-38.6-25.3-84.5-40.1-133.9-40.1-135.7 0-245.8 110.9-245.8 247.8 0 136.8 110.1 247.8 245.8 247.8 135.8 0 245.8-110.9 245.8-247.8 0-49.8-14.7-96-39.7-134.9 1.8-1.4 3.7-2.8 5.5-4.5l148.5-149.8c20.1-20.4 20.1-53.4-0.1-73.8z"  horiz-adv-x="1024" />

    
    <glyph glyph-name="fapiao" unicode="&#58923;" d="M877.44 221.44000000000005zM877.44 222.08000000000004zM1024 546.56V691.2A86.4 86.4 0 0 1 931.2 768H92.8A86.4 86.4 0 0 1 0 691.2v-144.64a89.6 89.6 0 0 1 83.84-88.32 74.24 74.24 0 0 0 0-148.48A89.6 89.6 0 0 1 0 221.44000000000005v-144.64A86.4 86.4 0 0 1 92.8 0h838.4A86.4 86.4 0 0 1 1024 76.79999999999995v144.64a90.24 90.24 0 0 1-91.52 88.96h8.96a74.24 74.24 0 0 0 0 148.48h-8.32A90.24 90.24 0 0 1 1024 546.56z m-423.04-295.04h-320a53.12 53.12 0 0 0-53.76 52.48 53.12 53.12 0 0 0 53.76 51.84h320a52.48 52.48 0 0 0 53.12-51.84 53.12 53.12 0 0 0-53.12-52.48zM741.76 448H282.24a51.84 51.84 0 1 0 0 103.68h459.52a51.84 51.84 0 1 0 0-103.68z"  horiz-adv-x="1024" />

    
    <glyph glyph-name="jiaoyi" unicode="&#58920;" d="M941.632 256.64a448.064 448.064 0 0 0-875.2 80.384h153.856a64 64 0 0 1 44.736 18.304l137.088 134.016L561.6 352.512a64 64 0 0 1 83.328 97.152L441.024 624.576a64 64 0 0 1-86.4-2.816l-160.448-156.8H71.296A448 448 0 0 0 960 377.728 63.744 63.744 0 0 1 932.288 384H750.464a64 64 0 0 1-43.264-16.832L574.336 245.312 424.832 369.28a64 64 0 0 1-81.664-98.56l192.384-159.552a64 64 0 0 1 84.16 2.112L775.36 256h156.928c3.2 0 6.272 0.256 9.344 0.64z"  horiz-adv-x="1024" />

    
    <glyph glyph-name="biaoji" unicode="&#59157;" d="M512-128A512 512 0 1 0 512 896a512 512 0 0 0 0-1024z m0 292.571429a219.428571 219.428571 0 1 1 0 438.857142 219.428571 219.428571 0 0 1 0-438.857142z"  horiz-adv-x="1024" />

    
    <glyph glyph-name="shengcheng" unicode="&#58880;" d="M879.097284-22.04483H144.789129c-45.083801 0-81.642438 36.558637-81.642438 81.642439v81.641415c0 45.083801 36.558637 81.642438 81.642438 81.642438V712.264349c0 45.083801 36.558637 81.642438 81.641415 81.642438h571.143005c45.082778 0 81.636299-36.558637 81.636299-81.642438v-489.617224c45.088918 0 81.642438-36.554544 81.642438-81.642438v-81.638345c-0.118704-44.968168-36.672224-81.411171-81.755002-81.411172z m-81.524758 734.309179H226.430544v-530.376533h571.143005V712.264349h-0.001023zM348.714611 589.863624H675.047981c22.544459 0 40.764426-18.22099 40.764426-40.764425 0-22.540366-18.337647-40.759309-40.764426-40.759309H348.714611c-22.539342 0-40.759309 18.219967-40.759309 40.759309-0.001023 22.542412 18.219967 40.764426 40.759309 40.764425z m0-203.932645H675.047981c22.544459 0 40.764426-18.22099 40.764426-40.759309 0-22.543436-18.337647-40.764426-40.764426-40.764426H348.714611c-22.539342 0-40.759309 18.22099-40.759309 40.764426-0.001023 22.422685 18.219967 40.759309 40.759309 40.759309z"  horiz-adv-x="1024" />

    
    <glyph glyph-name="duanxin" unicode="&#59050;" d="M102.546286 785.334857H921.6c55.881143 0 101.668571-44.617143 102.4-99.328L512.219429 405.211429 0.585143 685.568a101.376 101.376 0 0 0 101.961143 99.693714zM0.585143 578.194286l-0.438857-496.786286c0-55.222857 46.08-100.498286 102.4-100.498286H921.6c56.32 0 102.4 45.275429 102.4 100.498286V578.413714L524.288 310.637714a25.673143 25.673143 0 0 0-24.502857 0L0.585143 578.194286z"  horiz-adv-x="1024" />

    
    <glyph glyph-name="paizhao" unicode="&#58925;" d="M855.6 65.3H170.2c-39.9 0-72.2 31.4-72.2 70.2v474c0 38.8 32.3 70.2 72.2 70.2h153.3l45.1 70.2c0 9.7 26.1 17.6 36.1 17.6h216.5c10 0 36.1-7.9 36.1-17.6l45.1-70.2h153.3c39.8 0 72.2-31.4 72.2-70.2v-474c-0.1-38.7-32.4-70.2-72.3-70.2M512.9 609.5c-129.5 0-234.5-102.2-234.5-228.2 0-126 105-228.2 234.5-228.2s234.5 102.2 234.5 228.2c0 126-105 228.2-234.5 228.2m0-386.2c-89.7 0-162.4 70.7-162.4 158 0 87.2 72.7 158 162.4 158s162.4-70.7 162.4-158c0-87.2-72.7-158-162.4-158m0 0z m0 0"  horiz-adv-x="1024" />

    
    <glyph glyph-name="touxiang1" unicode="&#58952;" d="M684.373146 373.84088c70.98753 50.700807 116.600658 136.88738 116.600658 233.217314C800.973804 769.287979 669.174103 896.015999 512 896.015999c-162.213786 0-288.941806-131.8157-288.941806-288.957805 0-96.329934 45.613128-182.500508 116.584659-233.217314C157.142345 302.885348 25.326645 125.45652 25.326645-82.402391a45.437139 45.437139 0 0 1 45.645126-45.613128 45.437139 45.437139 0 0 1 45.629127 45.613128C116.584899 135.583882 294.029725 318.084391 512 318.084391c218.002273 0 395.4311-177.428828 395.4311-395.415102a45.437139 45.437139 0 0 1 45.629127-45.629126 45.437139 45.437139 0 0 1 45.629127 45.629126c-5.08768 207.858911-131.8157 380.216058-314.316208 451.171591zM512 809.829426c111.544976 0 202.787231-91.258254 202.787231-202.771232 0-111.544976-91.242255-202.787231-202.787231-202.78723-111.512978 0-202.771232 91.242255-202.771232 202.78723 0 111.528977 91.274253 202.771232 202.771232 202.771232z"  horiz-adv-x="1024" />

    
    <glyph glyph-name="jiancharenyuan" unicode="&#59272;" d="M916.832723-28.700277 801.165354-28.700277l0-119.506814L685.500031-148.207092 685.500031-28.700277 569.831638-28.700277 569.831638 90.862819l115.66737 0L685.499008 210.369633l115.665323 0L801.164331 90.862819l115.66737 0L916.8317-28.700277 916.832723-28.700277zM454.137663-28.700277c0-20.418029 2.683109-40.185234 5.846148-59.725266l-352.252693 0c-0.423649 8.076956-0.564865 16.293081-0.564865 24.425296 0 245.989507 155.370627 445.328531 346.971409 445.328531 75.821873 0 145.402601-32.023344 202.444758-84.942601C537.358039 239.625958 454.137663 115.82535 454.137663-28.700277L454.137663-28.700277zM457.385637 427.131469c-96.746438 0-175.137833 71.924099-175.137833 160.566976 0 88.6132 78.391395 160.50967 175.137833 160.50967s175.194114-71.89647 175.194114-160.50967C632.579751 499.055568 554.132074 427.131469 457.385637 427.131469L457.385637 427.131469zM457.385637 427.131469"  horiz-adv-x="1024" />

    
    <glyph glyph-name="pinggubaogao" unicode="&#58887;" d="M858.5216 617.1648L705.024 784.896c-10.0352 10.8544-26.9312 11.5712-37.7856 1.536-5.4272-5.0176-8.6016-12.0832-8.6016-19.5584v-109.2608c0-46.7968 37.888-84.6848 84.6848-84.6848h93.9008c14.7456 0.1024 26.7264 12.0832 26.624 26.9312 0 6.656-2.56 13.0048-6.9632 17.92l1.6384-0.6144zM838.8608 465.92h-93.9008c-105.7792 0-191.5904 85.4016-192.2048 191.1808V766.2592c0.1024 9.216 1.2288 18.3296 3.2768 27.3408H243.6096c-46.7968 0-84.6848-37.888-84.6848-84.6848v-648.2944c-0.9216-46.6944 36.2496-85.4016 83.0464-86.3232h538.5216c46.7968 0 84.6848 37.888 84.6848 84.6848V469.1968c-8.704-1.9456-17.5104-3.072-26.3168-3.2768zM360.448 485.5808h176.4352c15.0528 0 27.3408-12.1856 27.3408-27.3408 0-15.0528-12.1856-27.3408-27.3408-27.3408H360.448c-15.0528 0-27.3408 12.1856-27.3408 27.3408 0 15.1552 12.288 27.3408 27.3408 27.3408z m327.68-309.1456H360.448c-15.0528 0-27.3408 12.1856-27.3408 27.3408 0 15.0528 12.1856 27.3408 27.3408 27.3408h327.68c15.0528 0 27.3408-12.1856 27.3408-27.3408 0-15.0528-12.288-27.3408-27.3408-27.3408z"  horiz-adv-x="1024" />

    
    <glyph glyph-name="shenhe" unicode="&#58919;" d="M841.15 295.19H637.32a35.07 35.07 0 0 0-35.07 35.07V359a35.19 35.19 0 0 0 17.56 30.38c70.44 41.06 120.53 115 116.74 205.31-3.8 89.44-64.6 169.27-151.2 200.12-155.9 55.42-309.7-63.6-309.7-209.81 0-85.94 49-156 116.87-195.57A35.27 35.27 0 0 0 410.15 359v-28.77a35.07 35.07 0 0 0-35.07-35.07H180.85c-46.7 0-85-37.05-85-82.45v-91.32a35.07 35.07 0 0 1 35.07-35.07h760.16a35.07 35.07 0 0 1 35.07 35.07v91.35c0 45.3-38.2 82.45-85 82.45z m0 0M135.55 6.38m46.61 0l655.98 0q46.61 0 46.61-46.61l0 0q0-46.61-46.61-46.61l-655.98 0q-46.61 0-46.61 46.61l0 0q0 46.61 46.61 46.61Z"  horiz-adv-x="1024" />

    
    <glyph glyph-name="biaoji-" unicode="&#58959;" d="M0 895.744064v-1023.744064h731.209198A292.534866 292.534866 0 0 1 1023.744064 164.53486599999997V895.744064H0z m357.627926-781.457969H237.679247V234.234775l319.92002 319.92002 119.948679-119.94868-319.92002-319.92002zM772.073648 528.731817l-62.5337-62.5337-119.948679 119.94868 62.5337 62.5337a32.162626 32.162626 0 0 0 45.300675 0l74.648004-74.648005a32.162626 32.162626 0 0 0 0-45.300675z"  horiz-adv-x="1024" />

    
    <glyph glyph-name="dingdan" unicode="&#58922;" d="M806.473143 876.763429H159.012571C114.249143 876.763429 77.604571 840.192 77.604571 795.428571v-822.857142c0-44.763429 36.571429-81.408 81.408-81.408h366.518858a363.52 363.52 0 0 1 362.422857 362.496V795.428571c0 44.763429-36.571429 81.334857-81.481143 81.334858zM617.398857 401.188571a51.053714 51.053714 0 0 0-50.980571-50.980571H260.973714a51.053714 51.053714 0 0 0-50.907428 50.980571c0 28.013714 22.893714 50.907429 50.907428 50.907429h305.444572a51.2 51.2 0 0 0 50.980571-50.907429z m142.409143 220.891429a51.053714 51.053714 0 0 0-50.907429-50.980571H260.973714a51.053714 51.053714 0 0 0-50.907428 50.907428c0 28.086857 22.893714 50.980571 50.907428 50.980572h447.926857c28.086857 0 50.907429-22.893714 50.907429-50.980572z"  horiz-adv-x="1024" />

    
    <glyph glyph-name="chaxun" unicode="&#58913;" d="M736.427 703.147a376.32 376.32 0 0 1-535.467-8.534A384 384 0 0 1 192 153.6a376.32 376.32 0 0 1 535.467 8.533 384 384 0 0 1 8.96 541.014zM623.787 267.52a227.84 227.84 0 0 0-324.267-5.12 232.96 232.96 0 0 0 5.12 327.253 227.84 227.84 0 0 0 324.267 5.12 232.96 232.96 0 0 0-5.12-327.253zM926.293 42.667l-72.96-72.107a42.667 42.667 0 0 0-61.866 0l-207.36 209.067L717.653 316.16l208.214-210.347a42.667 42.667 0 0 0 0.426-63.146z"  horiz-adv-x="1024" />

    
    <glyph glyph-name="tongbu" unicode="&#58914;" d="M919.673 481.275C863.378 287.042 722.64 239.239 569.646 239.239h-65.882c0.032 25.092 0.032 40.79 0 65.881 2.027 70.899-11.999 80.309-49.909 48.253 0 0-240.203-152.125-261.804-174.675-21.601-22.583 0-29.146 0-29.146l261.804-174.61c37.846-32.169 49.909-39.343 49.909 17.242 0 64.24-0.659 64.964 0 65.881 221.127 0 440.115 162.645 444.586 439.52 0.114 19.108-20.008 10.439-28.677-16.31z m-399.438 54.43v-65.881c-2.011-72.669 12.272-82.271 50.199-50.055l261.965 175.48s17.242 7.817 0 29.225L570.435 799.905c-37.879 32.265-50.199 23.242-50.199-33.616 0-14.186 0.659-55.957 0-65.881-221.256 0-440.115-147.396-444.586-425.542-0.112-19.157 20.025-10.472 28.759 16.454 56.263 195.07 196.808 244.385 349.946 244.385h65.88z"  horiz-adv-x="1024" />

    
    <glyph glyph-name="touxiang" unicode="&#58901;" d="M512 840C260.16 840 56 635.84 56 384s204.16-456 456-456 456 204.16 456 456S763.84 840 512 840z m0-136c75.112 0 136-60.888 136-136s-60.888-136-136-136-136 60.888-136 136 60.888 136 136 136z m0-672c-128.712 0-241.24 69.12-302.624 172.232C279.656 294.136 389.04 352 512 352s232.344-57.864 302.624-147.768C753.24 101.12 640.712 32 512 32z"  horiz-adv-x="1024" />

    
    <glyph glyph-name="zhankai" unicode="&#58911;" d="M987.428571-128H36.571429v146.285714h950.857142z m0 877.714286H36.571429V896h950.857142zM475.428571 310.857143H36.571429V457.142857h438.857142z m512 73.142857L621.714286 603.428571v-438.857142z"  horiz-adv-x="1024" />

    
    <glyph glyph-name="shouqi" unicode="&#58912;" d="M36.571429 896h950.857142v-146.285714H36.571429z m0-877.714286h950.857142v-146.285714H36.571429z m512 438.857143h438.857142v-146.285714H548.571429zM36.571429 384l365.714285-219.428571V603.428571z"  horiz-adv-x="1024" />

    
    <glyph glyph-name="down-solid" unicode="&#59301;" d="M976.39100871 176.16446957000005l-468.65392324 468.65392324-467.23381475-467.23381476z"  horiz-adv-x="1024" />

    
    <glyph glyph-name="daochu" unicode="&#58909;" d="M0.121224 76.702673a632.923326 632.923326 0 0 1 33.985766-204.505654 592.632954 592.632954 0 0 0 556.775508 409.405345v-102.351336a103.040903 103.040903 0 0 1 54.377226-91.613805 95.357164 95.357164 0 0 1 103.139412 9.850947l394.037869 307.054009a104.715564 104.715564 0 0 1 0 163.722735l-394.037869 307.054008a95.357164 95.357164 0 0 1-103.139412 9.850947 102.843884 102.843884 0 0 1-54.377226-91.515295v-102.351336A602.976448 602.976448 0 0 1 0.121224 76.702673z"  horiz-adv-x="1182" />

    
    <glyph glyph-name="tuceng" unicode="&#58910;" d="M1075.2 896h-921.6A153.6 153.6 0 0 1 0 742.4v-716.8A153.6 153.6 0 0 1 153.6-128h921.6A153.6 153.6 0 0 1 1228.8 25.6v716.8A153.6 153.6 0 0 1 1075.2 896zM218.4192 503.296a128 128 0 1 0 137.5232-117.6576 128 128 0 0 0-137.5232 117.6576z m234.8032-434.0736a63.5904 63.5904 0 0 0-29.4912 84.992l249.856 515.072a63.5904 63.5904 0 1 0 114.4832-55.5008l-249.856-515.072a63.5904 63.5904 0 0 0-84.992-29.4912z m439.5008 80.9984a128 128 0 1 0 117.76 137.5232 128 128 0 0 0-117.76-137.5232z"  horiz-adv-x="1228" />

    
    <glyph glyph-name="daoru" unicode="&#58905;" d="M0.09833 691.782698a603.911443 603.911443 0 0 1 591.802259-614.563884v-102.154175a102.700453 102.700453 0 0 1 54.6279-92.139059 94.324175 94.324175 0 0 1 43.793367-10.92558 98.8765 98.8765 0 0 1 59.271273 20.03023l394.868676 307.281942a103.337779 103.337779 0 0 1 39.241042 81.941851 104.703476 104.703476 0 0 1-39.241042 81.941851L749.593129 670.477816a96.054059 96.054059 0 0 1-59.271273 20.940696 91.683827 91.683827 0 0 1-43.793367-10.925581 102.700453 102.700453 0 0 1-54.6279-92.139059v-102.154174A593.805281 593.805281 0 0 0 34.787047 895.908953 623.395394 623.395394 0 0 1 0.09833 691.782698z"  horiz-adv-x="1183" />

    
    <glyph glyph-name="lajitong" unicode="&#58906;" d="M656 768V864H336v-96H80v-96h848v96zM192-96h640l64 672H128z"  horiz-adv-x="1024" />

    
    <glyph glyph-name="jiashang" unicode="&#58907;" d="M808.407 440.32v-112.64c0-8.479-6.871-15.36-15.36-15.36h-208.21v-208.21c0-8.489-6.881-15.36-15.36-15.36h-112.64c-8.479 0-15.36 6.871-15.36 15.36V312.32h-208.21c-8.489 0-15.36 6.881-15.36 15.36V440.32c0 8.479 6.871 15.36 15.36 15.36h208.21V663.89c0 8.489 6.881 15.36 15.36 15.36h112.64c8.479 0 15.36-6.871 15.36-15.36v-208.21h208.21c8.489 0 15.36-6.881 15.36-15.36z"  horiz-adv-x="1024" />

    
    <glyph glyph-name="dashujukeshihuaico-" unicode="&#58908;" d="M840.32 384a151.68 151.68 0 0 0 33.28 94.72 37.12 37.12 0 0 1 0 41.6l-64 106.88a40.32 40.32 0 0 1-39.68 21.12 151.68 151.68 0 0 0-158.72 96.64A37.12 37.12 0 0 1 576 768H462.72c-26.88 0-40.96-8.96-46.08-23.04a151.68 151.68 0 0 0-168.32-96 37.12 37.12 0 0 1-38.4-18.56l-64-106.24a37.12 37.12 0 0 1 0-42.24 151.68 151.68 0 0 0 0-195.2 37.12 37.12 0 0 1 0-42.24l64-106.24a37.12 37.12 0 0 1 38.4-18.56 151.68 151.68 0 0 0 168.32-96 37.12 37.12 0 0 1 35.2-23.04h112.64c26.88 0 40.96 8.96 46.08 23.04a151.68 151.68 0 0 0 163.84 96.64 40.32 40.32 0 0 1 39.68 21.12l64 106.88a37.12 37.12 0 0 1 0 41.6A151.68 151.68 0 0 0 840.32 384zM512 229.76A154.24 154.24 0 1 0 666.24 384 154.24 154.24 0 0 0 512 229.76z"  horiz-adv-x="1024" />

    


  </font>
</defs>
</svg>
